<mxfile host="app.diagrams.net" modified="2021-03-06T21:32:30.726Z" agent="5.0 (Windows NT 10.0; Win64; x64) AppleWebKit/537.36 (KHTML, like Gecko) Chrome/88.0.4324.190 Safari/537.36" etag="tULmBx34qQcdeIm895mx" version="14.4.3" type="github">
  <diagram id="C5RBs43oDa-KdzZeNtuy" name="Page-1">
    <mxGraphModel dx="2040" dy="762" grid="1" gridSize="10" guides="1" tooltips="1" connect="1" arrows="1" fold="1" page="1" pageScale="1" pageWidth="827" pageHeight="1169" math="0" shadow="0">
      <root>
        <mxCell id="WIyWlLk6GJQsqaUBKTNV-0" />
        <mxCell id="WIyWlLk6GJQsqaUBKTNV-1" parent="WIyWlLk6GJQsqaUBKTNV-0" />
        <mxCell id="nrPGeN4Zne9LFQCFeVUE-4" value="" style="edgeStyle=orthogonalEdgeStyle;rounded=0;orthogonalLoop=1;jettySize=auto;html=1;" edge="1" parent="WIyWlLk6GJQsqaUBKTNV-1" source="nrPGeN4Zne9LFQCFeVUE-0" target="nrPGeN4Zne9LFQCFeVUE-3">
          <mxGeometry relative="1" as="geometry" />
        </mxCell>
        <mxCell id="nrPGeN4Zne9LFQCFeVUE-0" value="Simulate a map" style="shape=parallelogram;perimeter=parallelogramPerimeter;whiteSpace=wrap;html=1;fixedSize=1;" vertex="1" parent="WIyWlLk6GJQsqaUBKTNV-1">
          <mxGeometry x="180" y="120" width="120" height="60" as="geometry" />
        </mxCell>
        <mxCell id="nrPGeN4Zne9LFQCFeVUE-2" value="" style="edgeStyle=orthogonalEdgeStyle;rounded=0;orthogonalLoop=1;jettySize=auto;html=1;" edge="1" parent="WIyWlLk6GJQsqaUBKTNV-1" source="nrPGeN4Zne9LFQCFeVUE-1" target="nrPGeN4Zne9LFQCFeVUE-0">
          <mxGeometry relative="1" as="geometry" />
        </mxCell>
        <mxCell id="nrPGeN4Zne9LFQCFeVUE-1" value="Chromosome lengths&lt;br&gt;number of markers/chromosome" style="shape=document;whiteSpace=wrap;html=1;boundedLbl=1;" vertex="1" parent="WIyWlLk6GJQsqaUBKTNV-1">
          <mxGeometry x="180" y="10" width="120" height="70" as="geometry" />
        </mxCell>
        <mxCell id="nrPGeN4Zne9LFQCFeVUE-14" value="" style="edgeStyle=orthogonalEdgeStyle;rounded=0;orthogonalLoop=1;jettySize=auto;html=1;" edge="1" parent="WIyWlLk6GJQsqaUBKTNV-1" source="nrPGeN4Zne9LFQCFeVUE-3">
          <mxGeometry relative="1" as="geometry">
            <mxPoint x="240" y="320" as="targetPoint" />
          </mxGeometry>
        </mxCell>
        <mxCell id="nrPGeN4Zne9LFQCFeVUE-3" value="Simulate many crosses" style="shape=parallelogram;perimeter=parallelogramPerimeter;whiteSpace=wrap;html=1;fixedSize=1;" vertex="1" parent="WIyWlLk6GJQsqaUBKTNV-1">
          <mxGeometry x="180" y="220" width="120" height="60" as="geometry" />
        </mxCell>
        <mxCell id="nrPGeN4Zne9LFQCFeVUE-5" value="&lt;h1 style=&quot;text-align: right&quot;&gt;&lt;span style=&quot;font-weight: normal&quot;&gt;&lt;font style=&quot;font-size: 12px&quot;&gt;type, number of individuals, QTL model&lt;/font&gt;&lt;/span&gt;&lt;br&gt;&lt;/h1&gt;" style="text;html=1;strokeColor=none;fillColor=none;spacing=5;spacingTop=-20;whiteSpace=wrap;overflow=hidden;rounded=0;" vertex="1" parent="WIyWlLk6GJQsqaUBKTNV-1">
          <mxGeometry x="-30" y="215" width="190" height="70" as="geometry" />
        </mxCell>
        <mxCell id="nrPGeN4Zne9LFQCFeVUE-7" value="" style="edgeStyle=orthogonalEdgeStyle;rounded=0;orthogonalLoop=1;jettySize=auto;html=1;" edge="1" parent="WIyWlLk6GJQsqaUBKTNV-1" source="nrPGeN4Zne9LFQCFeVUE-6" target="nrPGeN4Zne9LFQCFeVUE-3">
          <mxGeometry relative="1" as="geometry" />
        </mxCell>
        <mxCell id="nrPGeN4Zne9LFQCFeVUE-6" value="Make QTL Models" style="shape=parallelogram;perimeter=parallelogramPerimeter;whiteSpace=wrap;html=1;fixedSize=1;" vertex="1" parent="WIyWlLk6GJQsqaUBKTNV-1">
          <mxGeometry x="340" y="220" width="140" height="60" as="geometry" />
        </mxCell>
        <mxCell id="nrPGeN4Zne9LFQCFeVUE-11" value="&#xa;&#xa;&lt;ul style=&quot;color: rgb(0, 0, 0); font-family: helvetica; font-size: 12px; font-style: normal; font-weight: 400; letter-spacing: normal; text-align: left; text-indent: 0px; text-transform: none; word-spacing: 0px; background-color: rgb(248, 249, 250);&quot;&gt;&lt;li&gt;Simple (1-2 QTL, additive)&lt;/li&gt;&lt;li&gt;More complex (Many, small effect)&lt;/li&gt;&lt;li&gt;Epistasis&lt;/li&gt;&lt;/ul&gt;&#xa;&#xa;" style="text;html=1;strokeColor=none;fillColor=none;align=center;verticalAlign=middle;whiteSpace=wrap;rounded=0;" vertex="1" parent="WIyWlLk6GJQsqaUBKTNV-1">
          <mxGeometry x="480" y="240" width="230" height="20" as="geometry" />
        </mxCell>
        <mxCell id="nrPGeN4Zne9LFQCFeVUE-18" value="" style="edgeStyle=orthogonalEdgeStyle;rounded=0;orthogonalLoop=1;jettySize=auto;html=1;" edge="1" parent="WIyWlLk6GJQsqaUBKTNV-1" source="nrPGeN4Zne9LFQCFeVUE-16" target="nrPGeN4Zne9LFQCFeVUE-17">
          <mxGeometry relative="1" as="geometry" />
        </mxCell>
        <mxCell id="nrPGeN4Zne9LFQCFeVUE-20" value="" style="edgeStyle=orthogonalEdgeStyle;rounded=0;orthogonalLoop=1;jettySize=auto;html=1;" edge="1" parent="WIyWlLk6GJQsqaUBKTNV-1" source="nrPGeN4Zne9LFQCFeVUE-16" target="nrPGeN4Zne9LFQCFeVUE-19">
          <mxGeometry relative="1" as="geometry" />
        </mxCell>
        <mxCell id="nrPGeN4Zne9LFQCFeVUE-16" value="Choose technique" style="strokeWidth=2;html=1;shape=mxgraph.flowchart.decision;whiteSpace=wrap;" vertex="1" parent="WIyWlLk6GJQsqaUBKTNV-1">
          <mxGeometry x="185" y="320" width="110" height="110" as="geometry" />
        </mxCell>
        <mxCell id="nrPGeN4Zne9LFQCFeVUE-30" value="" style="edgeStyle=orthogonalEdgeStyle;rounded=0;orthogonalLoop=1;jettySize=auto;html=1;" edge="1" parent="WIyWlLk6GJQsqaUBKTNV-1" source="nrPGeN4Zne9LFQCFeVUE-17" target="nrPGeN4Zne9LFQCFeVUE-28">
          <mxGeometry relative="1" as="geometry" />
        </mxCell>
        <mxCell id="nrPGeN4Zne9LFQCFeVUE-17" value="Multiple QTL" style="shape=parallelogram;html=1;strokeWidth=2;perimeter=parallelogramPerimeter;whiteSpace=wrap;rounded=1;arcSize=12;size=0.23;" vertex="1" parent="WIyWlLk6GJQsqaUBKTNV-1">
          <mxGeometry x="350" y="345" width="100" height="60" as="geometry" />
        </mxCell>
        <mxCell id="nrPGeN4Zne9LFQCFeVUE-19" value="SIngle QTL" style="shape=parallelogram;html=1;strokeWidth=2;perimeter=parallelogramPerimeter;whiteSpace=wrap;rounded=1;arcSize=12;size=0.23;" vertex="1" parent="WIyWlLk6GJQsqaUBKTNV-1">
          <mxGeometry x="10" y="345" width="100" height="60" as="geometry" />
        </mxCell>
        <mxCell id="nrPGeN4Zne9LFQCFeVUE-26" value="" style="edgeStyle=orthogonalEdgeStyle;rounded=0;orthogonalLoop=1;jettySize=auto;html=1;" edge="1" parent="WIyWlLk6GJQsqaUBKTNV-1" source="nrPGeN4Zne9LFQCFeVUE-19" target="nrPGeN4Zne9LFQCFeVUE-21">
          <mxGeometry relative="1" as="geometry" />
        </mxCell>
        <mxCell id="nrPGeN4Zne9LFQCFeVUE-38" style="edgeStyle=orthogonalEdgeStyle;rounded=0;orthogonalLoop=1;jettySize=auto;html=1;entryX=0.604;entryY=0.125;entryDx=0;entryDy=0;entryPerimeter=0;" edge="1" parent="WIyWlLk6GJQsqaUBKTNV-1" source="nrPGeN4Zne9LFQCFeVUE-21" target="nrPGeN4Zne9LFQCFeVUE-33">
          <mxGeometry relative="1" as="geometry">
            <Array as="points">
              <mxPoint x="-20" y="550" />
              <mxPoint x="240" y="550" />
            </Array>
          </mxGeometry>
        </mxCell>
        <mxCell id="nrPGeN4Zne9LFQCFeVUE-21" value="Regression" style="shape=parallelogram;html=1;strokeWidth=2;perimeter=parallelogramPerimeter;whiteSpace=wrap;rounded=1;arcSize=12;size=0.23;" vertex="1" parent="WIyWlLk6GJQsqaUBKTNV-1">
          <mxGeometry x="-70" y="450" width="100" height="60" as="geometry" />
        </mxCell>
        <mxCell id="nrPGeN4Zne9LFQCFeVUE-32" value="" style="edgeStyle=orthogonalEdgeStyle;rounded=0;orthogonalLoop=1;jettySize=auto;html=1;" edge="1" parent="WIyWlLk6GJQsqaUBKTNV-1" source="nrPGeN4Zne9LFQCFeVUE-19" target="nrPGeN4Zne9LFQCFeVUE-22">
          <mxGeometry relative="1" as="geometry" />
        </mxCell>
        <mxCell id="nrPGeN4Zne9LFQCFeVUE-36" style="edgeStyle=orthogonalEdgeStyle;rounded=0;orthogonalLoop=1;jettySize=auto;html=1;entryX=0.604;entryY=0.063;entryDx=0;entryDy=0;entryPerimeter=0;" edge="1" parent="WIyWlLk6GJQsqaUBKTNV-1" source="nrPGeN4Zne9LFQCFeVUE-22" target="nrPGeN4Zne9LFQCFeVUE-33">
          <mxGeometry relative="1" as="geometry" />
        </mxCell>
        <mxCell id="nrPGeN4Zne9LFQCFeVUE-22" value="SIM" style="shape=parallelogram;html=1;strokeWidth=2;perimeter=parallelogramPerimeter;whiteSpace=wrap;rounded=1;arcSize=12;size=0.23;" vertex="1" parent="WIyWlLk6GJQsqaUBKTNV-1">
          <mxGeometry x="50" y="450" width="100" height="60" as="geometry" />
        </mxCell>
        <mxCell id="nrPGeN4Zne9LFQCFeVUE-39" style="edgeStyle=orthogonalEdgeStyle;rounded=0;orthogonalLoop=1;jettySize=auto;html=1;" edge="1" parent="WIyWlLk6GJQsqaUBKTNV-1" source="nrPGeN4Zne9LFQCFeVUE-28">
          <mxGeometry relative="1" as="geometry">
            <mxPoint x="240" y="590" as="targetPoint" />
          </mxGeometry>
        </mxCell>
        <mxCell id="nrPGeN4Zne9LFQCFeVUE-28" value="Forward-backward" style="shape=parallelogram;html=1;strokeWidth=2;perimeter=parallelogramPerimeter;whiteSpace=wrap;rounded=1;arcSize=12;size=0.23;" vertex="1" parent="WIyWlLk6GJQsqaUBKTNV-1">
          <mxGeometry x="287.5" y="450" width="100" height="60" as="geometry" />
        </mxCell>
        <mxCell id="nrPGeN4Zne9LFQCFeVUE-31" value="" style="edgeStyle=orthogonalEdgeStyle;rounded=0;orthogonalLoop=1;jettySize=auto;html=1;" edge="1" parent="WIyWlLk6GJQsqaUBKTNV-1" source="nrPGeN4Zne9LFQCFeVUE-17" target="nrPGeN4Zne9LFQCFeVUE-29">
          <mxGeometry relative="1" as="geometry" />
        </mxCell>
        <mxCell id="nrPGeN4Zne9LFQCFeVUE-40" style="edgeStyle=orthogonalEdgeStyle;rounded=0;orthogonalLoop=1;jettySize=auto;html=1;entryX=0.604;entryY=0.025;entryDx=0;entryDy=0;entryPerimeter=0;" edge="1" parent="WIyWlLk6GJQsqaUBKTNV-1" source="nrPGeN4Zne9LFQCFeVUE-29" target="nrPGeN4Zne9LFQCFeVUE-33">
          <mxGeometry relative="1" as="geometry">
            <Array as="points">
              <mxPoint x="463" y="550" />
              <mxPoint x="240" y="550" />
            </Array>
          </mxGeometry>
        </mxCell>
        <mxCell id="nrPGeN4Zne9LFQCFeVUE-29" value="MQM" style="shape=parallelogram;html=1;strokeWidth=2;perimeter=parallelogramPerimeter;whiteSpace=wrap;rounded=1;arcSize=12;size=0.23;" vertex="1" parent="WIyWlLk6GJQsqaUBKTNV-1">
          <mxGeometry x="412.5" y="450" width="100" height="60" as="geometry" />
        </mxCell>
        <mxCell id="nrPGeN4Zne9LFQCFeVUE-43" value="" style="edgeStyle=orthogonalEdgeStyle;rounded=0;orthogonalLoop=1;jettySize=auto;html=1;" edge="1" parent="WIyWlLk6GJQsqaUBKTNV-1" source="nrPGeN4Zne9LFQCFeVUE-33" target="nrPGeN4Zne9LFQCFeVUE-42">
          <mxGeometry relative="1" as="geometry" />
        </mxCell>
        <mxCell id="nrPGeN4Zne9LFQCFeVUE-33" value="Calculate LOD Thresholds" style="shape=parallelogram;html=1;strokeWidth=2;perimeter=parallelogramPerimeter;whiteSpace=wrap;rounded=1;arcSize=12;size=0.23;" vertex="1" parent="WIyWlLk6GJQsqaUBKTNV-1">
          <mxGeometry x="167.5" y="600" width="120" height="80" as="geometry" />
        </mxCell>
        <mxCell id="nrPGeN4Zne9LFQCFeVUE-45" value="" style="edgeStyle=orthogonalEdgeStyle;rounded=0;orthogonalLoop=1;jettySize=auto;html=1;" edge="1" parent="WIyWlLk6GJQsqaUBKTNV-1" source="nrPGeN4Zne9LFQCFeVUE-42" target="nrPGeN4Zne9LFQCFeVUE-44">
          <mxGeometry relative="1" as="geometry" />
        </mxCell>
        <mxCell id="nrPGeN4Zne9LFQCFeVUE-42" value="Perform mapping" style="shape=parallelogram;html=1;strokeWidth=2;perimeter=parallelogramPerimeter;whiteSpace=wrap;rounded=1;arcSize=12;size=0.23;" vertex="1" parent="WIyWlLk6GJQsqaUBKTNV-1">
          <mxGeometry x="158.5" y="720" width="138" height="70" as="geometry" />
        </mxCell>
        <mxCell id="nrPGeN4Zne9LFQCFeVUE-44" value="Store results" style="strokeWidth=2;html=1;shape=mxgraph.flowchart.stored_data;whiteSpace=wrap;" vertex="1" parent="WIyWlLk6GJQsqaUBKTNV-1">
          <mxGeometry x="360" y="725" width="100" height="60" as="geometry" />
        </mxCell>
      </root>
    </mxGraphModel>
  </diagram>
</mxfile>
